<svg id="b" xmlns="http://www.w3.org/2000/svg" viewBox="0 0 598.8 598"><defs><style>.d{fill:#fff}.e{fill:#8ab0c2}.f{fill:#405a70}.g{fill:#1899b5}.h{fill:#3c7d99}</style></defs><g id="c"><path class="f" d="M299.4 0H0v299c0 165.1 134 299 299.4 299s299.4-133.9 299.4-299S464.8 0 299.4 0"/><path class="e" d="M89.1 90.9H12.3c-.8 0-1.4-.6-1.4-1.4V14c0-.8.6-1.4 1.4-1.4h76.8c.8 0 1.4.6 1.4 1.4v75.5c0 .8-.6 1.4-1.4 1.4"/><path class="d" d="M80.5 82.9H22.9c-.4 0-.8-.4-.8-.8V22.4c0-.4.4-.8.8-.8h57.6c.4 0 .8.4.8.8v59.7c0 .4-.4.8-.8.8"/><path class="e" d="M31 33.2h17.1V39H31zM30.8 46.5h19.1v7.8H30.8zM30.4 57.7H54v5.9H30.4zM30.4 67.4h21.3v5.7H30.4zM71 73.3l-5.8-5.6-5.4 5.6V33.4H71v39.9z"/><path class="h" d="M580.8 300.1c0 154.2-125.2 279.2-279.6 279.2S21.6 454.3 21.6 300.1 146.8 21 301.2 21s279.6 125 279.6 279.2"/><path class="d" d="M580.8 300.1h-2c0 76.5-31.1 145.8-81.3 196-50.2 50.2-119.6 81.2-196.3 81.2-76.7 0-146-31-196.3-81.2-50.2-50.2-81.3-119.4-81.3-196 0-76.5 31.1-145.8 81.3-196C155.2 54 224.5 22.9 301.2 22.9c76.7 0 146 31 196.3 81.2 50.2 50.2 81.3 119.4 81.3 196h4c0-155.3-126-281.1-281.5-281.1S19.8 144.9 19.8 300.1c0 155.3 126 281.1 281.5 281.1s281.5-125.9 281.5-281.1h-2Z"/><path class="d" d="M534.5 298.8c0 129.6-105.2 234.6-235 234.6s-235-105.1-235-234.6 105.2-234.7 235-234.7 235 105.1 235 234.6M71.1 161.8l4.4-6.5c.6-.9 1.3-1.7 2-2.4s1.5-1.2 2.3-1.6c.8-.3 1.7-.4 2.6-.3.9.1 1.9.5 3 1.2 1 .7 1.8 1.4 2.3 2.2.5.8.7 1.6.7 2.5 0 .9-.1 1.7-.5 2.7-.4.9-.9 1.8-1.5 2.8l-1.9 2.8 6.9 4.6-2.6 3.9-17.6-11.9Zm10.1 1.1 1.7-2.6c.2-.3.4-.7.6-1.1.2-.4.2-.7.2-1.1 0-.4 0-.7-.2-1.1-.2-.3-.5-.7-.9-.9-.4-.3-.9-.4-1.3-.4s-.8.1-1.2.4c-.4.2-.7.5-1 .9-.3.4-.6.7-.8 1.1l-1.3 2 4.2 2.8Z"/><path class="d" d="m82.6 145 5.1-6.5c.7-.9 1.4-1.6 2.1-2.2.8-.6 1.6-1.1 2.4-1.4.8-.3 1.7-.3 2.6-.2.9.2 1.9.6 2.8 1.4 1.2.9 1.9 2 2.3 3.3.3 1.3.2 2.6-.5 3.9l10.4 1.3-3.5 4.4-9.4-1.7-1.4 1.8 6.7 5.2-2.9 3.7-16.7-13.1Zm9.8 1.7 1.7-2.2c.3-.3.5-.7.8-1.1s.5-.8.6-1.2.1-.8 0-1.2c0-.4-.4-.8-.8-1.1-.4-.3-.8-.5-1.2-.5-.4 0-.8 0-1.1.2-.3.2-.7.4-1 .7-.3.3-.6.6-.9 1l-1.9 2.4 3.8 3ZM102.8 136.4c-1.2-1.2-2.2-2.4-2.8-3.8-.6-1.4-.9-2.7-1-4.1 0-1.4.3-2.8.8-4.2.6-1.4 1.4-2.7 2.5-3.9 1.1-1.2 2.4-2.2 3.7-2.8 1.3-.7 2.7-1.1 4.1-1.1 1.4 0 2.8.1 4.2.6 1.4.5 2.7 1.4 4 2.5 1.2 1.2 2.2 2.4 2.8 3.8.6 1.4.9 2.7 1 4.1 0 1.4-.3 2.8-.8 4.2-.6 1.4-1.4 2.7-2.5 3.9-1.1 1.2-2.4 2.2-3.7 2.8s-2.7 1.1-4.1 1.1c-1.4 0-2.8-.1-4.2-.6-1.4-.5-2.7-1.4-4-2.5Zm3.3-3.6c.7.7 1.5 1.2 2.3 1.5s1.7.5 2.5.5 1.7-.2 2.5-.6c.8-.4 1.5-.9 2.2-1.6.7-.7 1.2-1.5 1.5-2.3.3-.8.4-1.7.4-2.5s-.3-1.7-.7-2.4c-.4-.8-1-1.5-1.7-2.2-.7-.7-1.5-1.2-2.3-1.5-.8-.3-1.7-.5-2.5-.5s-1.7.2-2.5.6c-.8.4-1.5.9-2.2 1.6-.7.7-1.2 1.5-1.5 2.3-.3.8-.4 1.7-.4 2.5s.3 1.7.7 2.5c.4.8 1 1.5 1.7 2.2ZM114.4 108.9l10.5-9.6 2.9 3.2-7.1 6.5 2.9 3.2 6.5-6 2.9 3.2-6.5 6 5.6 6.1-3.5 3.2-14.3-15.7ZM128.8 96l11.3-8.9 2.7 3.4-7.6 6 2.5 3.1 7.2-5.7 2.7 3.4-7.2 5.7 2.7 3.4 8.1-6.4 2.7 3.4-11.7 9.3L129 96ZM156.5 82c-.6-.2-1.2-.2-1.9 0s-1.2.4-1.7.8c-.3.2-.5.4-.8.7s-.5.6-.6.9c-.2.3-.3.7-.3 1 0 .3 0 .7.3 1 .4.5.8.8 1.4.8.6 0 1.3 0 2-.3.7-.2 1.5-.5 2.4-.7s1.7-.4 2.5-.5c.9 0 1.7.1 2.5.4.8.3 1.6 1 2.3 2.1.7 1 1.1 2 1.2 2.9.1 1 0 1.9-.2 2.8-.3.9-.8 1.7-1.4 2.5s-1.4 1.5-2.4 2.1c-1.1.8-2.3 1.3-3.5 1.6-1.2.3-2.5.4-3.9.2l.7-4.9c.8.3 1.5.3 2.3.2.8-.1 1.5-.4 2.2-.8.3-.2.6-.5.9-.8.3-.3.5-.6.6-.9.2-.3.2-.7.2-1s-.1-.7-.3-1c-.4-.5-.8-.8-1.5-.8-.6 0-1.3 0-2.1.3-.8.2-1.6.4-2.4.7-.9.3-1.7.4-2.6.5-.9 0-1.7 0-2.5-.4-.8-.3-1.5-1-2.2-1.9-.6-.9-1-1.9-1.1-2.9-.1-1 0-1.9.3-2.8.3-.9.8-1.7 1.4-2.5.6-.8 1.4-1.5 2.3-2.1 1-.7 2-1.2 3.2-1.5s2.3-.4 3.5-.3l-.7 4.7ZM171.9 72.5c-.6-.2-1.2-.3-1.9-.1-.7.1-1.3.3-1.8.6-.3.2-.6.4-.8.6-.3.3-.5.5-.7.8-.2.3-.3.6-.3 1 0 .3 0 .7.3 1 .3.6.8.9 1.4.9s1.3 0 2-.2c.8-.2 1.5-.4 2.4-.6.8-.2 1.7-.3 2.5-.3s1.7.2 2.5.6c.8.4 1.5 1.1 2.1 2.2.6 1 .9 2 1 3 0 1 0 1.9-.4 2.8-.4.9-.9 1.7-1.6 2.4s-1.5 1.4-2.5 2c-1.2.7-2.4 1.2-3.6 1.4-1.2.2-2.5.2-3.9 0l1-4.8c.7.3 1.5.4 2.3.4.8 0 1.5-.3 2.2-.7.3-.2.6-.4.9-.7.3-.3.5-.6.7-.9.2-.3.3-.6.3-1 0-.3 0-.7-.3-1-.3-.6-.8-.9-1.4-.9-.6 0-1.3 0-2.1.1s-1.6.3-2.5.6c-.9.2-1.7.3-2.6.3-.9 0-1.7-.2-2.5-.6-.8-.4-1.5-1.1-2.1-2.1-.6-1-.9-2-.9-2.9 0-1 .1-1.9.5-2.8.3-.9.9-1.7 1.6-2.4.7-.7 1.5-1.4 2.4-1.9 1-.6 2.1-1.1 3.3-1.3 1.1-.3 2.3-.3 3.5 0l-1 4.7ZM176.3 64.2l4.2-2.1 9.7 18.9-4.2 2.1-9.7-18.9ZM188.6 69.6c-.7-1.6-1-3.1-1.1-4.6s.2-2.9.8-4.2c.6-1.3 1.4-2.5 2.4-3.5 1.1-1 2.4-1.9 3.9-2.5 1.5-.7 3-1 4.5-1.1s2.9.1 4.2.6c1.3.5 2.5 1.2 3.6 2.3s1.9 2.3 2.6 3.9 1 3.1 1.1 4.6c0 1.5-.2 2.9-.8 4.2-.5 1.3-1.4 2.5-2.4 3.5-1.1 1-2.4 1.9-3.9 2.5-1.5.7-3 1-4.5 1.1-1.5 0-2.9-.1-4.2-.6-1.3-.5-2.5-1.2-3.6-2.3s-1.9-2.3-2.6-3.9Zm4.5-1.9c.4.9.9 1.7 1.5 2.3.6.6 1.3 1.1 2.1 1.5.8.3 1.6.5 2.5.5.9 0 1.8-.2 2.7-.6.9-.4 1.7-.9 2.3-1.5.6-.6 1.1-1.3 1.3-2.1.3-.8.4-1.6.4-2.5 0-.9-.3-1.8-.7-2.7-.4-.9-.9-1.7-1.5-2.3-.6-.6-1.3-1.1-2.1-1.5-.8-.3-1.6-.5-2.5-.5-.9 0-1.8.2-2.7.6-.9.4-1.7.9-2.3 1.5-.6.6-1.1 1.3-1.3 2.1-.3.8-.4 1.6-.4 2.5 0 .9.3 1.8.7 2.7ZM210.5 48.9l6.1-1.9 13.1 11.3-4.5-14.1 4.5-1.4 6.4 20.2-5.8 1.9-13.4-11.6 4.6 14.4-4.5 1.4-6.4-20.2ZM242.5 39.8l3.8-.8 13.6 18.8-5.2 1.1-2.8-4-8.1 1.8-.8 4.8-5 1.1 4.4-22.7Zm3.1 5.6-1.1 7 5.1-1.1-4-5.9ZM259.3 36.5l4.6-.6 2.3 16.8 8.6-1.2.6 4.3-13.2 1.8-2.9-21ZM296.8 38.5c-.4-.5-.9-.8-1.6-1-.7-.2-1.3-.3-1.9-.3-.3 0-.7 0-1 .2-.4 0-.7.2-1 .4-.3.2-.6.4-.8.7-.2.3-.3.6-.3 1 0 .6.3 1.1.8 1.4.5.3 1.1.6 1.8.8.7.2 1.5.4 2.4.6.8.2 1.6.5 2.4.9.7.4 1.4 1 1.9 1.7s.8 1.7.8 2.9-.1 2.2-.6 3.1c-.4.9-1 1.6-1.7 2.2-.7.6-1.6 1.1-2.6 1.4-1 .3-2 .5-3.1.5-1.4 0-2.7-.1-3.9-.5-1.2-.4-2.3-1-3.4-1.9l3.2-3.8c.5.6 1.1 1.1 1.9 1.4.7.3 1.5.5 2.3.4.4 0 .8 0 1.1-.2.4-.1.7-.2 1-.4.3-.2.5-.4.7-.7.2-.3.3-.6.3-1 0-.6-.3-1.1-.8-1.5-.5-.4-1.1-.6-1.9-.9-.7-.2-1.6-.5-2.4-.7-.9-.2-1.7-.6-2.4-1-.8-.4-1.4-1-1.9-1.7s-.8-1.6-.8-2.8c0-1.1.2-2.1.6-3 .4-.9 1-1.6 1.7-2.2.7-.6 1.6-1.1 2.5-1.4 1-.3 2-.5 3-.5 1.2 0 2.4 0 3.5.4 1.1.3 2.2.8 3.1 1.6l-3.1 3.6ZM318.7 39.4c-.4-.6-1-1-1.6-1.4-.7-.3-1.4-.5-2.3-.6-.9 0-1.7 0-2.5.4-.8.3-1.4.7-2 1.3-.6.6-1 1.3-1.4 2.1-.3.8-.5 1.7-.6 2.7 0 1 0 1.9.3 2.8.3.8.7 1.6 1.2 2.2.5.6 1.1 1.1 1.8 1.5.7.4 1.5.6 2.3.6 1 0 1.8-.1 2.6-.5s1.4-.9 1.9-1.6l3.8 3.1c-1 1.2-2.1 2.1-3.5 2.6s-2.8.8-4.3.7c-1.7 0-3.2-.4-4.5-1-1.4-.6-2.5-1.4-3.5-2.4s-1.7-2.2-2.2-3.6c-.5-1.4-.7-3-.6-4.7 0-1.7.4-3.2 1.1-4.6.6-1.4 1.5-2.5 2.5-3.4 1.1-.9 2.3-1.6 3.7-2.1 1.4-.5 3-.6 4.6-.6.6 0 1.2.1 1.9.3.6.1 1.3.3 1.9.6.6.3 1.2.6 1.8 1 .6.4 1.1.9 1.5 1.5l-3.7 2.8ZM327.3 34.6l8.2 1c1.1.1 2.1.4 3 .7.9.3 1.7.8 2.4 1.4.7.6 1.2 1.3 1.5 2.2.3.9.4 1.9.3 3.2-.2 1.5-.7 2.7-1.6 3.6-.9.9-2.1 1.5-3.6 1.6l4.2 9.6-5.6-.7-3.3-9-2.3-.3-1.1 8.4-4.6-.6 2.7-21.1Zm3.5 9.3 2.7.3c.4 0 .9 0 1.3.1.5 0 .9 0 1.3-.1s.7-.3 1-.6c.3-.3.5-.7.5-1.3 0-.5 0-1-.2-1.3-.2-.3-.4-.6-.7-.8-.3-.2-.7-.4-1.1-.5-.4-.1-.9-.2-1.3-.2l-3-.4-.6 4.8ZM363.2 54.1c-.3 1.2-.7 2.3-1.3 3.3s-1.3 1.7-2.2 2.3c-.9.6-1.9 1-3.1 1.2-1.2.2-2.5.1-3.9-.2-1.4-.3-2.7-.8-3.7-1.5s-1.8-1.5-2.3-2.4-.9-1.9-1.1-3.1c-.1-1.1 0-2.3.2-3.5l2.8-12.7 4.6 1-2.8 12.6c-.1.6-.2 1.3 0 1.9 0 .6.3 1.1.6 1.6s.7.9 1.1 1.2c.5.3 1 .6 1.6.7.6.1 1.2.1 1.7 0 .6-.1 1.1-.3 1.5-.6.5-.3.9-.7 1.2-1.2.3-.5.6-1.1.7-1.7l2.8-12.6 4.6 1-2.8 12.7ZM372.3 42.8 379 45l.3 14.7 9-11.6 6.7 2.2-6.7 20.2-4.4-1.5 5.1-15.5-10.4 13.7-3.4-1.1V48.9l-5.1 15.4-4.4-1.5 6.7-20.2ZM410.3 56.7l6.3 3.2-1.9 14.6 10.7-10.1 6.3 3.2-9.7 18.9-4.2-2.1 7.4-14.5-12.4 11.9-3.2-1.6 2.6-16.9-7.4 14.5-4.2-2.1 9.7-18.9ZM443 74.7l3.3 2.1-3.7 22.9-4.4-2.9.9-4.8-6.9-4.5-3.9 2.8-4.3-2.8 19.2-12.9Zm-1.8 6.2-5.7 4.2 4.4 2.8 1.4-7ZM462.3 94.6c0-.6-.2-1.2-.6-1.8-.4-.6-.8-1-1.3-1.4-.3-.2-.6-.4-.9-.5-.3-.2-.7-.3-1-.3h-1c-.3.1-.6.3-.9.6-.4.5-.5 1-.3 1.6s.5 1.2.9 1.8c.4.6.9 1.3 1.4 2 .5.7 1 1.4 1.3 2.2s.4 1.6.4 2.5c0 .9-.5 1.8-1.2 2.8-.7.9-1.5 1.6-2.4 2.1-.9.4-1.8.7-2.7.7s-1.9-.2-2.9-.5c-1-.4-1.9-.9-2.8-1.5-1.1-.8-2-1.8-2.7-2.8s-1.2-2.2-1.4-3.6l4.9-.9c0 .8.2 1.6.6 2.3.4.7.9 1.3 1.5 1.8.3.2.6.4 1 .6.4.2.7.3 1.1.3.4 0 .7 0 1-.1.3-.1.6-.3.8-.6.4-.5.5-1.1.3-1.7-.2-.6-.5-1.2-.9-1.9s-.9-1.3-1.4-2.1c-.5-.7-1-1.5-1.3-2.3-.3-.8-.5-1.6-.4-2.5 0-.9.4-1.8 1.1-2.7.7-.9 1.5-1.6 2.3-2 .9-.4 1.8-.6 2.7-.6.9 0 1.9.2 2.9.5 1 .4 1.9.8 2.7 1.5 1 .7 1.8 1.6 2.5 2.5.7.9 1.2 2 1.4 3.2l-4.7.9ZM472.3 101.4l-4.6-4 2.7-3.1 12.7 11-2.7 3.1-4.6-4-11.2 12.9-3.5-3.1 11.2-12.9ZM486.1 108.1l10.2 10.2-3.1 3-6.9-6.9-2.8 2.8 6.5 6.5-3.1 3-6.5-6.5-3.1 3 7.3 7.3-3.1 3-10.5-10.6 15.1-15ZM500.2 122.5l5.4 6.2c.7.8 1.3 1.7 1.8 2.5s.8 1.7.9 2.6c.1.9 0 1.7-.4 2.6-.3.9-1 1.7-1.9 2.5-1.1 1-2.4 1.5-3.7 1.6-1.3 0-2.6-.3-3.7-1.3l-3.3 9.9-3.7-4.3 3.5-8.9-1.5-1.8-6.4 5.5-3.1-3.5 16.1-13.9Zm-3.6 9.3 1.8 2.1c.3.3.6.6.9 1 .3.3.7.6 1 .8.4.2.7.3 1.2.3.4 0 .8-.2 1.3-.6.4-.4.7-.7.8-1.1s.1-.7 0-1.1c0-.4-.3-.7-.5-1.1-.2-.4-.5-.7-.8-1l-2-2.3-3.7 3.2ZM519.1 145.9l2.7 3.8-17.2 12.5-2.7-3.8 17.2-12.5ZM524.7 153.7l2.6 3.9-17.6 11.9-2.6-3.9 17.6-11.9ZM532.9 160.4l-.9-1.5.7-.4 2.4 3.9-.7.4-.9-1.5-3.7 2.3-.6-.9 3.7-2.3Zm2.7 2.9.9 1.4-2.6 3.4 4.2-.7.9 1.4-4.4 2.7-.6-.9 3.7-2.2-4.6.8-.5-.8 2.8-3.7-3.7 2.2-.6-.9 4.4-2.7Z"/><path class="h" d="M99.3 281.5h36.8c5.1 0 10 .5 14.6 1.4 4.6.9 8.6 2.5 12 4.8 3.4 2.3 6.1 5.4 8.1 9.2 2 3.9 3 8.8 3 14.6s-.9 10.6-2.8 14.6c-1.9 3.9-4.4 7-7.7 9.4-3.3 2.3-7.1 4-11.6 5s-9.3 1.5-14.6 1.5h-16v38.6H99.3v-99.1Zm21.8 42h14.6c2 0 3.8-.2 5.7-.6 1.8-.4 3.5-1 4.9-1.9 1.4-.9 2.6-2.1 3.5-3.6.9-1.5 1.3-3.5 1.3-5.8s-.6-4.5-1.8-6.1c-1.2-1.5-2.7-2.7-4.5-3.6-1.8-.8-3.9-1.4-6.1-1.6-2.2-.2-4.4-.4-6.4-.4h-11.2v23.5ZM236.5 305.7c-1.8-2.2-4.2-3.9-7.2-5s-5.9-1.6-8.6-1.6-3.2.2-4.9.6c-1.7.4-3.3 1-4.8 1.8s-2.7 1.8-3.6 3.1c-.9 1.3-1.4 2.9-1.4 4.8 0 3 1.1 5.3 3.4 6.9 2.2 1.6 5.1 2.9 8.5 4.1 3.4 1.1 7.1 2.2 11 3.4s7.6 2.7 11 4.8c3.4 2.1 6.2 4.8 8.5 8.3 2.2 3.5 3.4 8.1 3.4 13.9s-1 10.3-3.1 14.4-4.8 7.5-8.3 10.2c-3.5 2.7-7.6 4.7-12.2 6-4.6 1.3-9.5 2-14.6 2s-12.4-1-17.9-2.9c-5.5-2-10.6-5.1-15.4-9.5l15.5-17.1c2.2 3 5.1 5.3 8.5 6.9 3.4 1.6 6.9 2.4 10.6 2.4s3.6-.2 5.4-.6 3.5-1 4.9-1.9c1.4-.8 2.6-1.9 3.5-3.2.9-1.3 1.3-2.8 1.3-4.6 0-3-1.1-5.3-3.4-7.1-2.3-1.7-5.2-3.2-8.6-4.4-3.5-1.2-7.2-2.4-11.2-3.6-4-1.2-7.7-2.8-11.2-4.9-3.5-2.1-6.3-4.8-8.6-8.1-2.3-3.4-3.4-7.8-3.4-13.3s1-10 3.2-14c2.1-4 4.9-7.4 8.4-10.1 3.5-2.7 7.5-4.7 12.1-6.1 4.6-1.4 9.3-2 14.1-2s11 .8 16.2 2.4c5.2 1.6 9.9 4.2 14.1 8l-15 16.4ZM267.9 281.5h33l22.8 64.7h.3l23-64.7h32.9v99.1h-21.8v-76h-.3l-26 76h-16.7l-25.1-76h-.3v76h-21.8v-99.1ZM441.2 281.5H463v99.1h-21.8v-99.1ZM482.7 281.5h21.8v99.1h-21.8v-99.1Z"/><g><path class="f" d="M154.2 184.6c.7-3 1.9-5.9 3.5-8.5 1.6-2.6 3.6-4.9 5.8-6.7-1.7 1.5-3.3 3.2-4.6 5 1-1.4 2-2.6 3.2-3.6 1.2-1.1 2.4-2 3.9-2.9-.4.4-1 .9-1.6 1.4-.6.5-1.1 1-1.1 1.3-3 2.7-5.5 6-7.3 9.7-1.8 3.7-2.8 7.7-3 11.8-.4-1.6-.2-3 .1-4.1.3-1.2.8-2.2 1.1-3.2M174.4 164.3c-.8.2-1.5.5-2.3.8.8-.3 1.5-.6 2.3-.8M183.9 217.7c.8 0 1.7-.2 2.5-.3-.8.2-1.6.3-2.5.3M155.5 195.1l.4 1.4c.5 3.5 1.7 6.9 3.6 10.1-1-1.7-2-3.5-2.7-5.5-.7-1.9-1.2-4-1.2-6"/><path class="f" d="M156.1 191.3c0-3.5 1-7.1 2.7-9.9-1.6 2.9-2.5 6.3-2.7 9.9M201.2 202.7v-.4c.6-.9 1.2-2 1.7-3 0 .3 0 .6-.1.9-.3.6-.6.9-.8 1.2-.2.3-.5.7-.7 1.4M183 217.7h-1 1M200.4 204c-.1 0-.2-.1-.4 0l1.2-1.5v.2c-.1.4-.6.9-.7 1.4M188.4 211.5c-.4.1-.7.5-.8.6h-3.3c-.2 0-.6.1-.9.3-.2-.1-.5-.2-.7-.3 2.6 0 5.3-.4 8-1.4-.7.3-1.4.6-2.2.8"/><path class="f" d="M176.3 168.4c2-.6 4.3-.8 6.5-.8s4.4.4 6.5.6c-2.3-.9-5.2-1.4-7.6-1.5-2.4-.2-4.4 0-4.9-.5s1.2-1 3.7-1.1c1.2 0 2.6 0 3.9.2 1.3.2 2.5.4 3.5.6l-1-.4c.5.2 1 .4 1.5.4-.5-.2-1.3-.5-2-.8-.7-.2-1.4-.5-1.7-.7.3 0 .7-.1 1-.2-1.4-.6-3.5-1-5.7-1s-4.4.1-6 .2c3.8-.4 7.9-.4 12 .4s8.2 2.4 11.9 4.8c3.7 2.4 6.9 5.8 9.2 9.7 2.3 3.9 3.6 8.3 3.8 12.7.7 9.8-3.2 19.3-10 25.7-.7.6-1.9 1.5-3.3 2.2-1.5.8-3.1 1.5-4.6 1.9-4.9 2-10.4 2.7-15.9 2.2-5.7-.7-11.1-3.3-15.5-7.2-4.3-3.9-7.6-9-9.5-14.9-.4-1.2-.4-2.7-.2-3.1.1-.2.3-.2.6.3.3.4.6 1.3 1.1 2.6 1.8 4.4 4.4 8.5 7.8 11.9-.3 0-.9-.6-1.4-1.1-.5-.6-1.1-1.2-1.5-1.6 1 1.5 2 2.8 3.2 3.9 1.2 1.1 2.4 2.2 3.9 3.1-2-1.3-3.8-2.8-5.4-4.5 2 2.1 4.5 4.1 7.2 5.6 2.8 1.6 5.8 2.7 9 3.2 1.1.2 2.2.7 3.4 1 1.2.3 2.6.4 4.3 0-4.2 0-8.5-.9-12.3-2.5-3.9-1.7-7.4-4.1-10.4-7.1-2.7-2.6-4.6-5.5-6.1-8.8.5 1 1.1 2 1.5 2.9-2.4-4.7-3.6-9.8-3.6-14.9.3 3.6 1.2 7.2 2.7 10.6 1.5 3.4 3.5 6.6 6.1 9.2 2.6 2.7 5.7 4.8 9.1 6.3 3.4 1.5 7 2.2 10.6 2.2-2-.3-4.3-.6-6.4-1.1-2.2-.5-4.2-1.3-5.6-2.5 5.7 2.9 12.4 4 18.9 2.7l-1.4.4c2.1-.1 4.2-.7 6.1-1.5 2-.8 3.8-1.9 5.6-3.1l.9-.6-.9.6c-3.2 2.1-6.7 3.5-10.3 4.2 1.6-.5 3.3-1 5.3-1.8-1.1.2-2.7.7-4.3 1-2.1.5-4.2.8-6.3.8 3.3-.1 6.4-1 9-2.3-4.1 1.3-8.7 1.9-12.9 1.2 2.4.2 4.7.2 7.1-.2 3.9-.5 7.8-1.8 11.2-4.1l-.4.3c.3-.2.5-.4.8-.5 1.3-.9 2.6-1.9 3.7-3.1 1-1 1.8-2.2 2.4-3.5l.4-.6c-.2.4-.2.7.4 0 1.2-1.5 2-3.2 2.7-5.1.7-1.9 1.2-3.9 1.7-6 .3-1.1.3-2.6.2-4.3v-.9c0-.4 0-.7-.1-1.1 0-.9-.2-1.7-.5-2.5.2.8.3 1.7.5 2.5v1c0-.2-.1-.4-.2-.9.2 3 0 6-.8 8.9-.8 2.9-2.1 5.8-3.7 8.3.1-.4.3-.8.4-1.1-.2.6-.5 1.1-.8 1.6-1.1 1.6-2.4 3.2-3.9 4.5.4-.4.7-.9 1-1.3-2 2-4.3 3.7-6.8 5-2.5 1.3-5.2 2.2-8 2.7-5.3.6-10.7-.4-15.3-2.8 2.4 1.5 5.2 2.6 8.2 3-4-.4-8-1.8-11.4-4-3.4-2.2-6.3-5.3-8.2-8.8 1.1 1 2.5 2.4 3.5 2.7.1-.2-1.3-2.2-.3-1.2 1.9 1.8 3.5 3.2 5 4.2s2.9 1.5 4.1 1.3c.3 0-.7-1.1-1.3-2-.6-.9-1-1.8-.3-1.4 1.2.7 3.3 1.8 5.7 2.4.7.3 1.4.5 2.2.6h.5c2.7.5 5.2.3 6.7.2.5 0 1.1-.1 1.6-.2.3 0 .5 0 .8.1.3-.2.6-.4.9-.5 1.4-.4 2.7-.9 4-1.5.7-.3 1.5-.6 2.2-.9 0 0-.2-.1-.2-.3 1.5-1 2.8-2.1 3.9-3.5.6-.5 1.1-.9 1.6-1.2.2-1 1-2.4 1.7-4s1.3-3.4 1.5-4.9c.3-1.5.4-3.1.3-4.7 0-.3.1-.5.2-.8-.2-.4-.2-.8-.3-1 0-1.3-.1-2.4-.2-3.5-.1-.2-.5-.4-.6-.8-.2-.8-.6-1.5-.9-2.2-.4-.8-.8-1.7-1.3-2.5-1.6-2.8-3.8-5.2-6.4-7.1v-.4c-.5-.1-1.1-.6-1.5-.7h.2c-.7-.2-1.1-.5-1.5-.7-.4-.2-.7-.5-1.3-.8-.3 0-.6 0-.9-.1-.1 0-.3-.1-.4-.2-1.3-1-2.9-1.1-4.6-1.3-1.7-.3-3.4-.4-5.2-.3-1.4.1-2-.1-3-.1"/><path class="f" d="M203.1 198.9c.6-1.4 1.1-2.8 1.4-4.3-.2 1.6-.4 3.1-1.4 4.3M169.9 208.2c-.3-.5-.7-1.1-1.1-1.6 2.6 2.5 5.8 4.2 9.4 5.1-1.4-.2-3.1-.9-4.6-1.6-1.5-.7-2.7-1.5-3.7-1.8M201.1 202.6v-.2.2M160.9 205.8l-.2-.4c.6.9 1.3 1.8 2.1 2.6-.6-.6-1.3-1.4-1.8-2.3M157.3 194.4c-.3-2.2-.3-4.5 0-6.8.6-2.9 1.7-5.6 3.3-7.8-2.5 4.3-3.7 9.4-3.4 14.5M165.4 202.8c-.3-.7-.5-1.4-.8-2.1.3.7.6 1.3 1 2-.2 0-.2 0-.3.2M167.5 212.3l-.5-.4c.5.3 1 .6 1.6.8-.2 0-.7-.3-1-.4M163.2 195.2c0 .5.1 1.1.3 1.6-.1-.3-.3-.6-.4-.9 0-.2.2-.4.2-.7M163.5 186.9c.2-.7.4-1.4.7-2-.3.8-.5 1.7-.7 2.5v-.5"/><path class="g" d="M170 153c2.2.9 4.2 2.3 6 3.9 1.7 1.6 3.2 3.5 4.3 5.4-.9-1.5-2-3-3.2-4.2.9 1 1.6 1.9 2.3 3 .6 1 1.2 2.2 1.6 3.4-.3-.3-.5-.9-.8-1.4-.3-.5-.6-1-.8-1.1-1.6-2.7-3.8-5.1-6.3-7-2.5-1.9-5.5-3.3-8.5-4 1.3 0 2.3.3 3.1.7.8.4 1.5 1 2.3 1.3M182.5 171.4c0-.6-.2-1.2-.3-1.8.1.6.3 1.3.3 1.8M140.4 170.7c0 .6 0 1.3-.1 1.9 0-.6 0-1.3.1-1.9M161.8 152.4h-1.1c-2.7 0-5.5.3-8.2 1.3 1.5-.5 3-1 4.6-1.3 1.6-.3 3.2-.3 4.7 0"/><path class="g" d="M164.6 153.4c2.7.5 5.2 1.8 7.2 3.5-2-1.6-4.5-2.9-7.2-3.5M149.2 186.1h.4c.6.6 1.3 1.2 2 1.7-.2 0-.4-.1-.6-.2-.4-.3-.6-.6-.8-.8-.2-.2-.5-.4-.9-.7M140.5 170v-.7c0 .2 0 .5-.1.7M148.4 185.3s.1-.2.1-.3c.3.4.7.7 1 1.1h-.2c-.3-.2-.6-.6-1-.8M144.5 175c0-.3-.3-.6-.3-.7.1-.8.3-1.6.4-2.5v-.8c.1-.2.2-.3.3-.5-.4 2-.5 4.1 0 6.3l-.3-1.8"/><path class="g" d="M179.1 172.2c.2 1.6 0 3.4-.4 5.1-.4 1.7-1 3.3-1.4 4.9 1-1.6 1.8-3.7 2.3-5.6.5-1.8.7-3.3 1.1-3.6.4-.3.6 1.1.3 3-.1.9-.4 2-.7 2.9-.3 1-.7 1.9-1 2.6.2-.4.2-.4.5-.7-.2.4-.5.7-.5 1.1.3-.3.6-.9.9-1.4.3-.5.6-1 .8-1.2v.8c.7-1 1.3-2.5 1.6-4.2.4-1.6.5-3.3.8-4.6-.3 3-.9 6.1-2.1 9.1-1.2 3-3 5.9-5.4 8.3-2.4 2.4-5.4 4.4-8.7 5.5-3.3 1.2-6.9 1.5-10.2 1-7.6-.9-14.2-5.3-18.1-11.4-.3-.6-.8-1.7-1.2-2.9-.4-1.2-.7-2.6-.8-3.8-.8-4.1-.5-8.3.7-12.4 1.4-4.3 4.2-8 7.8-10.7 3.6-2.7 8-4.5 12.7-5 .9-.1 2.1 0 2.4.3.2.1 0 .3-.3.4-.4.1-1.1.2-2.2.4-3.6.7-7.2 2.1-10.2 4.2.1-.2.5-.6 1.1-.9.5-.3 1.1-.6 1.4-.9-1.3.5-2.4 1.2-3.4 1.9s-2 1.5-3 2.5c1.3-1.3 2.7-2.5 4.2-3.5-1.9 1.2-3.8 2.8-5.4 4.7-1.6 1.9-2.9 4-3.8 6.4-.3.8-.8 1.6-1.2 2.5-.4.9-.7 1.9-.6 3.3.6-3.2 1.9-6.3 3.8-9 1.8-2.7 4.2-5 6.9-6.8 2.4-1.6 4.9-2.7 7.6-3.3-.8.2-1.7.5-2.4.7 3.9-1.1 8-1.3 11.9-.5-2.8-.3-5.7-.2-8.5.5-2.8.6-5.5 1.7-7.9 3.3-2.4 1.6-4.5 3.6-6.2 6-1.6 2.4-2.7 5-3.2 7.7.6-1.5 1.1-3.2 1.8-4.7.7-1.6 1.7-3 2.7-3.9-3.1 3.9-4.9 8.8-4.8 14v-1.1c-.3 1.6-.2 3.3.1 4.9.3 1.6.9 3.2 1.5 4.7.1.3.2.5.3.8l-.3-.8c-1.1-2.7-1.7-5.6-1.7-8.5.1 1.3.3 2.7.6 4.3 0-.9-.1-2.2-.1-3.4 0-1.7 0-3.3.3-4.9-.4 2.5-.2 5.1.4 7.2-.4-3.3-.2-6.9 1-10-.5 1.8-.8 3.6-.9 5.4-.2 3.1.2 6.2 1.4 9.1l-.2-.3c0 .2.2.4.3.7.5 1.1 1.1 2.2 1.8 3.3.6.9 1.4 1.7 2.3 2.4l.4.4c-.3-.2-.5-.2 0 .3.9 1.1 2.2 2 3.5 2.8 1.3.8 2.8 1.5 4.3 2.2.8.4 2 .7 3.2.8.3.1.5.1.7 0h2.8-2.8c.2-.1.4-.2.7-.2-2.3-.3-4.6-.9-6.7-1.9-2.1-1-4.1-2.4-5.8-4.1.3.1.6.4.8.4-.4-.3-.8-.5-1.1-.8-1.1-1.1-2-2.3-2.9-3.6.3.4.6.7.9.9-1.2-1.8-2.2-3.8-2.8-5.9-.6-2.1-.9-4.3-.9-6.5.3-4.1 1.9-8.1 4.4-11.2-1.5 1.6-2.7 3.6-3.5 5.8.9-3 2.5-5.8 4.7-8.1s4.9-4 7.9-4.9c-1 .7-2.2 1.6-2.6 2.3.1.1 1.8-.6.9 0-1.6 1.2-3 2.2-3.9 3.2-1 1-1.6 2-1.6 2.9 0 .2.9-.3 1.7-.7.8-.4 1.5-.5 1.1 0-.7.8-1.8 2.2-2.7 4-.3.5-.6 1-.8 1.5v.4c-.7 2-1 4-1.1 5.1v1.2c0 .2-.1.4-.2.6 0 .3.2.5.2.8 0 1.1.2 2.2.5 3.2 0 .6.2 1.2.4 1.8 0 0 .1-.2.2 0 .5 1.3 1.2 2.4 2.1 3.5.3.5.5 1 .7 1.4.8.3 1.7 1.1 2.8 1.9 1.1.8 2.4 1.5 3.5 1.9 1.1.4 2.3.7 3.5.9.2 0 .4.2.5.3.3 0 .6 0 .8-.1 1 .1 1.8.3 2.7.3.1 0 .4-.3.7-.4.6 0 1.3-.2 1.8-.4l2.1-.6c2.3-.8 4.5-2.1 6.3-3.8.1 0 .2 0 .3.1.2-.4.6-.7.8-1v.2c.3-.5.5-.8.7-1 .2-.2.5-.5.8-.9.1-.2.1-.4.2-.7 0 0 .1-.2.2-.3 1-.8 1.3-2 1.7-3.3.5-1.3.8-2.6 1-3.9.1-1.1.4-1.5.6-2.3"/><path class="g" d="M151.8 188.1c1 .7 2 1.3 3.1 1.7-1.2-.4-2.3-.8-3.1-1.7M149.7 161.5c.5-.1.9-.3 1.4-.6-2.3 1.6-4.1 3.8-5.2 6.4.4-1.1 1.2-2.2 2-3.2s1.6-1.9 1.9-2.6M149.4 186.1h.2-.2M152.9 155h.3c-.8.2-1.6.6-2.3 1.1.6-.4 1.3-.8 2-1.1M162 153.9c1.8.1 3.5.5 5.2 1.1 2.1.9 4 2.1 5.4 3.7-2.9-2.5-6.6-4.2-10.6-4.7M154.5 158.9c.6-.1 1.2-.2 1.7-.3-.6.1-1.1.3-1.7.5v-.2M146.9 159l.4-.4c-.3.3-.6.7-.8 1.1 0-.1.3-.5.5-.7M160.6 158.3h-1.3c.2 0 .5-.1.7-.2.1.1.3.2.5.3M166.8 159.7c.5.3 1 .5 1.4.8l-1.8-.9h.4"/></g><g><path class="f" d="M246.6 184.2c-.6-.8-1.4-1.3-2.5-1.7-1-.4-2-.6-3-.6s-1.1 0-1.7.2c-.6.1-1.1.3-1.6.6s-.9.6-1.3 1.1c-.3.5-.5 1-.5 1.6 0 1 .4 1.8 1.2 2.4.8.5 1.7 1 2.9 1.4 1.2.4 2.4.8 3.8 1.2 1.4.4 2.6.9 3.8 1.6 1.2.7 2.1 1.7 2.9 2.8.8 1.2 1.2 2.8 1.2 4.8s-.4 3.6-1.1 5c-.7 1.4-1.7 2.6-2.9 3.5-1.2.9-2.6 1.6-4.2 2.1s-3.3.7-5 .7-4.3-.3-6.2-1c-1.9-.7-3.7-1.8-5.3-3.3l5.4-5.9c.8 1 1.7 1.8 2.9 2.4 1.2.6 2.4.8 3.6.8s1.2 0 1.9-.2c.6-.1 1.2-.4 1.7-.7s.9-.7 1.2-1.1c.3-.4.5-1 .5-1.6 0-1-.4-1.8-1.2-2.4-.8-.6-1.8-1.1-3-1.5-1.2-.4-2.5-.8-3.9-1.3-1.4-.4-2.7-1-3.9-1.7-1.2-.7-2.2-1.6-3-2.8-.8-1.2-1.2-2.7-1.2-4.6s.4-3.4 1.1-4.8c.7-1.4 1.7-2.5 2.9-3.5 1.2-.9 2.6-1.6 4.2-2.1s3.2-.7 4.9-.7 3.8.3 5.6.8c1.8.5 3.4 1.5 4.9 2.8l-5.2 5.6ZM272.4 194.1c-.4-.5-.9-.9-1.5-1.3-.6-.3-1.3-.5-2.1-.5-1.8 0-3.3.5-4.3 1.6s-1.5 2.5-1.5 4.3.5 3.2 1.5 4.3c1 1.1 2.4 1.6 4.3 1.6s1.5-.2 2.1-.5c.6-.4 1.1-.8 1.5-1.3l4.8 5a8.3 8.3 0 0 1-4 2.4c-1.5.5-3 .7-4.4.7s-3.5-.3-5.1-.9c-1.6-.6-3-1.4-4.1-2.5-1.2-1.1-2.1-2.4-2.8-3.9-.7-1.5-1-3.2-1-5.1s.3-3.6 1-5.1c.7-1.5 1.6-2.8 2.8-3.9 1.2-1.1 2.6-1.9 4.1-2.5 1.6-.6 3.3-.9 5.1-.9s2.8.2 4.4.7c1.5.5 2.9 1.3 4 2.4l-4.8 5ZM279.8 186.6h7.2v3.8c.8-1.4 1.7-2.5 2.8-3.3s2.4-1.1 4-1.1h1.3c.4 0 .8 0 1.2.2v6.6c-.5-.2-1-.3-1.5-.4-.5 0-1-.1-1.6-.1-1.4 0-2.5.2-3.3.6-.8.4-1.4.9-1.9 1.6-.4.7-.7 1.5-.8 2.5-.1 1-.2 2-.2 3.2v9.8h-7.2v-23.5ZM322 210h-6.9v-3.2c-.3.5-.6.9-1 1.4-.4.5-.9.9-1.5 1.2-.6.4-1.2.6-2 .9-.7.2-1.5.3-2.4.3-1.8 0-3.3-.3-4.5-.8-1.1-.6-2-1.3-2.7-2.3-.6-1-1-2.2-1.3-3.5-.2-1.4-.3-2.8-.3-4.4v-12.9h7.2v13.6c0 .7.2 1.4.4 2 .2.6.6 1.1 1.1 1.5s1.2.6 2.1.6 1.7-.2 2.3-.5c.6-.3 1-.8 1.3-1.4.3-.6.5-1.2.6-1.9 0-.7.1-1.4.1-2.2v-11.7h7.2v23.5ZM327.1 186.6h6.9v3.2c.2-.4.5-.9 1-1.4.4-.5.9-.9 1.5-1.2.6-.4 1.2-.6 2-.9.7-.2 1.5-.3 2.4-.3 1.6 0 3.1.3 4.4 1 1.3.7 2.2 1.7 2.9 3.2.8-1.5 1.8-2.6 3-3.2 1.2-.6 2.7-1 4.4-1s2.9.3 4 .8 1.9 1.3 2.6 2.2c.6.9 1.1 2 1.4 3.2.3 1.2.4 2.6.4 4V210h-7.2v-13.7c0-1.1-.2-2-.7-2.8-.5-.8-1.3-1.2-2.5-1.2s-1.5.1-2.1.4c-.6.3-1 .7-1.4 1.1s-.6 1-.7 1.7c-.1.6-.2 1.3-.2 2v12.4H342V196c0-.6-.1-1.2-.3-1.7-.2-.5-.5-1-.9-1.4-.4-.4-1.1-.6-1.9-.6s-1.7.2-2.3.5-1 .8-1.3 1.4c-.3.6-.5 1.2-.6 1.9 0 .7-.1 1.4-.1 2.2V210h-7.2v-23.5Z"/></g><g><path class="f" d="M373.2 210.3c-.9 0-1.6-.3-2.2-.9-.6-.6-.9-1.4-.9-2.2s.3-1.6.9-2.2c.6-.6 1.4-.9 2.2-.9s1.6.3 2.2.9c.6.6.9 1.4.9 2.2s-.3 1.6-.9 2.2c-.6.6-1.4.9-2.2.9ZM382.1 198.6c0-1.7.3-3.2.9-4.7.6-1.4 1.5-2.7 2.6-3.8 1.1-1.1 2.4-2 3.9-2.6 1.5-.6 3.1-.9 4.8-.9s3.3.3 4.8.9c1.5.6 2.8 1.5 3.9 2.6s2 2.4 2.6 3.8c.6 1.4.9 3 .9 4.7s-.3 3.2-.9 4.7c-.6 1.5-1.5 2.7-2.6 3.8-1.1 1.1-2.4 1.9-3.9 2.6-1.5.6-3.1.9-4.8.9s-3.3-.3-4.8-.9c-1.5-.6-2.8-1.5-3.9-2.6s-2-2.3-2.6-3.8c-.6-1.5-.9-3-.9-4.7Zm4.6 0c0 1.2.2 2.2.5 3.2.4 1 .9 1.8 1.5 2.5s1.4 1.2 2.4 1.6c.9.4 2 .6 3.1.6s2.2-.2 3.1-.6c.9-.4 1.7-.9 2.4-1.6.6-.7 1.1-1.5 1.5-2.5.4-1 .5-2.1.5-3.2s-.2-2.2-.5-3.2c-.4-1-.9-1.8-1.5-2.5s-1.4-1.2-2.4-1.6c-.9-.4-2-.6-3.1-.6s-2.2.2-3.1.6c-.9.4-1.7.9-2.4 1.6-.6.7-1.1 1.5-1.5 2.5-.4 1-.5 2.1-.5 3.2ZM411.9 187.1h4.3v3.5c.3-.6.7-1.2 1.2-1.7s1-.9 1.6-1.3c.6-.4 1.2-.6 2-.8.7-.2 1.4-.3 2.1-.3s1.4 0 1.9.3l-.2 4.7c-.4 0-.7-.2-1.1-.2h-1.1c-2.1 0-3.7.6-4.9 1.8-1.1 1.2-1.7 3-1.7 5.5v11.5h-4.3v-22.9Z"/></g><path class="f" d="M451.8 209.8c0 1.7-.3 3.3-.9 4.8-.6 1.4-1.4 2.7-2.5 3.7s-2.4 1.9-4 2.4c-1.5.6-3.2.9-5.1.9s-4.2-.3-6-.9c-1.8-.6-3.5-1.7-5.2-3.2l2.9-3.7c1.1 1.2 2.3 2.1 3.7 2.8 1.3.6 2.8.9 4.5.9s2.9-.2 4-.7c1.1-.5 1.9-1.1 2.5-1.8.6-.7 1.1-1.6 1.3-2.5.3-.9.4-1.9.4-2.9v-3.4h-.1c-.8 1.4-2 2.4-3.4 3.1-1.4.7-2.9 1-4.5 1s-3.2-.3-4.7-.9c-1.4-.6-2.7-1.4-3.7-2.5-1-1-1.8-2.3-2.4-3.7-.6-1.4-.9-3-.9-4.7s.3-3.2.8-4.7 1.3-2.7 2.3-3.8c1-1.1 2.2-1.9 3.7-2.6 1.4-.6 3-.9 4.8-.9s3 .3 4.5 1 2.6 1.6 3.4 2.8V187h4.3v22.7Zm-11.9-19.2c-1.2 0-2.2.2-3.1.6-.9.4-1.7.9-2.4 1.6-.6.7-1.1 1.5-1.5 2.5-.4 1-.5 2.1-.5 3.2 0 2.3.7 4.2 2 5.6 1.4 1.4 3.2 2.1 5.5 2.1s4.2-.7 5.5-2.1c1.4-1.4 2-3.3 2-5.6s-.2-2.2-.5-3.2c-.4-1-.9-1.8-1.5-2.5s-1.4-1.2-2.4-1.6c-.9-.4-2-.6-3.1-.6ZM459.3 182.3h1.7l1.2 3.2 1.2-3.2h1.7v4.8h-1.3v-3.2l-1.2 3.2h-.8l-1.2-3.2v3.2h-1.3v-4.8Zm-3.7 1.1h-1.4v-1.1h4.1v1.1h-1.4v3.7h-1.3v-3.7Z"/></g></svg>